<svg id="FlashBack_Logo" data-name="FlashBack Logo" xmlns="http://www.w3.org/2000/svg" viewBox="0 0 532 172.08003"><defs><style>.cls-1{fill:#a550cc;}.cls-2{fill:#fff;}.cls-3{fill:#662c90;}.cls-4{fill:#6c3c97;}</style></defs><title>roku_logo</title><g id="BACK"><rect id="BACK_Rectangle" data-name="BACK Rectangle" class="cls-1" x="283" width="249" height="135"/><g id="BACK_Expanded" data-name="BACK Expanded"><path class="cls-2" d="M341.98535,63.16748a15.09039,15.09039,0,0,1,3.47949,1.31982,7.546,7.546,0,0,1,2.7002,2.58008,13.42755,13.42755,0,0,1,1.74023,4.5,34.35957,34.35957,0,0,1,.59961,7.08008v20.04a53.40736,53.40736,0,0,1-.77929,10.19971,10.59556,10.59556,0,0,1-3,5.88037,11.63632,11.63632,0,0,1-6.06055,2.69971,60.799,60.799,0,0,1-9.96.66015H311.02539V23.32764h19.67969a61.08085,61.08085,0,0,1,9.96.65966,11.67144,11.67144,0,0,1,6.06055,2.7002,10.55743,10.55743,0,0,1,3,5.81982,52.457,52.457,0,0,1,.77929,10.14014v7.08008a17.66073,17.66073,0,0,1-.89941,6.12012,12.40378,12.40378,0,0,1-2.16016,3.83984,8.67789,8.67789,0,0,1-2.75976,2.16016,8.25843,8.25843,0,0,1-2.7002.83984Zm-17.16015-5.52h6.24023q3.35742,0,4.43945-1.31982,1.08107-1.3191,1.08008-4.8003V42.64746a29.83326,29.83326,0,0,0-.17969-3.6001,4.953,4.953,0,0,0-.78027-2.27978,3.025,3.025,0,0,0-1.7998-1.14014,13.33654,13.33654,0,0,0-3.12012-.2998H324.8252Zm0,48.6001h5.87988a12.452,12.452,0,0,0,3.05957-.30029,3.10064,3.10064,0,0,0,1.74023-1.07959,5.0543,5.0543,0,0,0,.83985-2.28028,25.56,25.56,0,0,0,.24023-3.8999V75.52734q0-3.96019-.96-5.46-.9624-1.49926-4.55957-1.5H324.8252Z" transform="translate(-4 -4)"/><path class="cls-2" d="M389.98438,118.12744V97.00732H378.34473v21.12012H364.9043V42.04736a55.96872,55.96872,0,0,1,.78027-10.43994,11.23343,11.23343,0,0,1,2.94043-6.06006,10.89021,10.89021,0,0,1,5.81934-2.75976,54.925,54.925,0,0,1,9.41992-.66016,56.11849,56.11849,0,0,1,9.90039.72022,11.81326,11.81326,0,0,1,6.12012,2.81982,11.29365,11.29365,0,0,1,3.05957,6,51.28289,51.28289,0,0,1,.84082,10.37988v76.08008ZM384.10449,34.4873a11.90856,11.90856,0,0,0-2.93945.3003,3.42368,3.42368,0,0,0-1.80078,1.08008,4.26568,4.26568,0,0,0-.83985,2.27978,34.03024,34.03024,0,0,0-.17968,3.8999V85.72754h11.63965V42.04736a25.74,25.74,0,0,0-.23926-3.8999,5.07923,5.07923,0,0,0-.84082-2.27978,3.14774,3.14774,0,0,0-1.79981-1.08008A12.68956,12.68956,0,0,0,384.10449,34.4873Z" transform="translate(-4 -4)"/><path class="cls-2" d="M443.9834,63.52734v-21.48a34.0276,34.0276,0,0,0-.17969-3.8999,4.2817,4.2817,0,0,0-.83984-2.27978,3.43613,3.43613,0,0,0-1.79981-1.08008,11.9335,11.9335,0,0,0-2.94043-.3003,12.52634,12.52634,0,0,0-3.05957.3003,3.27514,3.27514,0,0,0-1.80078,1.13965,4.63074,4.63074,0,0,0-.83984,2.34033,32.70555,32.70555,0,0,0-.17969,3.77978V99.2876a35.35727,35.35727,0,0,0,.17969,4.02,4.61492,4.61492,0,0,0,.83984,2.33984,3.2546,3.2546,0,0,0,1.80078,1.14014,12.4338,12.4338,0,0,0,3.05957.2998,11.8425,11.8425,0,0,0,2.94043-.2998,3.26575,3.26575,0,0,0,1.79981-1.14014,4.6331,4.6331,0,0,0,.83984-2.33984,35.35727,35.35727,0,0,0,.17969-4.02v-21.96h13.32031v21.96a57.78979,57.78979,0,0,1-.78027,10.67969,10.91049,10.91049,0,0,1-2.93946,6,11.18115,11.18115,0,0,1-5.87988,2.70019,56.09468,56.09468,0,0,1-9.48047.66016,61.05516,61.05516,0,0,1-9.96-.66016,11.04231,11.04231,0,0,1-6-2.76025,11.22483,11.22483,0,0,1-2.94043-6.05957A56.89152,56.89152,0,0,1,418.544,99.2876V42.04736a52.14758,52.14758,0,0,1,.83984-10.43994,11.3104,11.3104,0,0,1,3.05957-6.06006,11.39686,11.39686,0,0,1,6.06055-2.75976,59.14488,59.14488,0,0,1,9.71972-.66016,56.04339,56.04339,0,0,1,9.48047.66016,10.95563,10.95563,0,0,1,5.87988,2.75976,11.20525,11.20525,0,0,1,2.93946,6,55.97418,55.97418,0,0,1,.78027,10.5v21.48Z" transform="translate(-4 -4)"/><path class="cls-2" d="M513.46289,23.32764,499.30273,62.6875l16.08008,55.43994h-15l-13.08008-49.7998h-.5996v49.7998H472.7832V23.32764h13.91993V59.20752h.5996l11.64063-35.87988Z" transform="translate(-4 -4)"/></g></g><g id="FLASH"><rect id="FLASH_Rectangle" data-name="FLASH Rectangle" class="cls-3" width="283" height="135"/><g id="FLASH_Expanded" data-name="FLASH Expanded"><path class="cls-2" d="M32.918,118.31934V23.51953h27.6001v11.3999H46.71826v14.04H60.03809V60.35938H46.71826v57.96Z" transform="translate(-4 -4)"/><path class="cls-2" d="M101.31689,118.31934H73.35645V23.51953H87.15674v82.79981h14.16015Z" transform="translate(-4 -4)"/><path class="cls-2" d="M138.395,118.31934V97.19922H126.75488v21.12012H113.31494V42.23926a56.016,56.016,0,0,1,.77979-10.43994,11.23645,11.23645,0,0,1,2.93994-6.06006,10.8933,10.8933,0,0,1,5.82031-2.75977,54.92619,54.92619,0,0,1,9.41992-.66015,56.11634,56.11634,0,0,1,9.8999.72021,11.81319,11.81319,0,0,1,6.12012,2.81983,11.294,11.294,0,0,1,3.06006,6,51.365,51.365,0,0,1,.83984,10.37988v76.08008ZM132.51465,34.6792a11.921,11.921,0,0,0-2.93994.30029,3.421,3.421,0,0,0-1.79981,1.08008,4.26173,4.26173,0,0,0-.83984,2.27979,34.01084,34.01084,0,0,0-.18018,3.8999V85.91943H138.395V42.23926a25.659,25.659,0,0,0-.24023-3.8999,5.068,5.068,0,0,0-.83985-2.27979,3.15241,3.15241,0,0,0-1.80029-1.08008A12.6868,12.6868,0,0,0,132.51465,34.6792Z" transform="translate(-4 -4)"/><path class="cls-2" d="M192.27344,54.23926V42.47949a37.0306,37.0306,0,0,0-.18018-4.08008,4.74082,4.74082,0,0,0-.77978-2.33984,3.15244,3.15244,0,0,0-1.8003-1.08008,13.32718,13.32718,0,0,0-3.12011-.30029,13.16647,13.16647,0,0,0-3.17969.30029,3.1078,3.1078,0,0,0-1.74024,1.08008,4.72624,4.72624,0,0,0-.77978,2.33984,37.0306,37.0306,0,0,0-.18018,4.08008v9.35987a11.28447,11.28447,0,0,0,.6001,4.25976,7.07712,7.07712,0,0,0,3,2.82031,54.56108,54.56108,0,0,0,5.46,3q3.42042,1.68165,7.5,4.19971a48.36,48.36,0,0,1,4.85987,3.48,10.24832,10.24832,0,0,1,2.76025,3.48,14.62637,14.62637,0,0,1,1.19971,4.56006,60.33756,60.33756,0,0,1,.30029,6.6001V99.47949a56.96389,56.96389,0,0,1-.78027,10.56006,11.238,11.238,0,0,1-2.94,6.05957,11.04733,11.04733,0,0,1-6,2.76026,61.06887,61.06887,0,0,1-9.96.66015,56.961,56.961,0,0,1-9.60009-.66015,9.92652,9.92652,0,0,1-8.87989-8.7002,53.682,53.682,0,0,1-.83984-10.67969V80.63916H180.6333V99.47949a35.33845,35.33845,0,0,0,.18018,4.02,5.00761,5.00761,0,0,0,.77978,2.33985,2.97036,2.97036,0,0,0,1.74024,1.14013,12.43584,12.43584,0,0,0,3.05957.29981q3.83936,0,4.86035-1.43994,1.01806-1.44,1.02-6.35987V85.19922a22.42105,22.42105,0,0,0-.48-5.52,6.356,6.356,0,0,0-2.76026-3.23975q-1.20043-.83862-3-1.86035-1.79955-1.01806-3.83984-2.15967-2.042-1.1389-4.14014-2.34033-2.10059-1.19751-3.77978-2.27978a26.36722,26.36722,0,0,1-4.02-3.18018,10.5895,10.5895,0,0,1-2.28028-3.2998,13.82672,13.82672,0,0,1-1.02-4.08008,54.96136,54.96136,0,0,1-.23975-5.64014V42.47949a56.85418,56.85418,0,0,1,.77978-10.56006,11.831,11.831,0,0,1,2.88038-6.12011,10.44228,10.44228,0,0,1,5.87988-2.81983,59.86447,59.86447,0,0,1,9.8999-.66015,59.86447,59.86447,0,0,1,9.8999.66015,10.76615,10.76615,0,0,1,5.93994,2.81983,11.58971,11.58971,0,0,1,2.94,6.12011,56.97482,56.97482,0,0,1,.78027,10.56006V54.23926Z" transform="translate(-4 -4)"/><path class="cls-2" d="M261.03223,118.31934H247.1123V66.47949h-12v51.83985H221.312V23.51953H235.1123V54.83936h12V23.51953h13.91993Z" transform="translate(-4 -4)"/></g></g><g id="Roku_Logo" data-name="Roku Logo"><path id="path3031" class="cls-4" d="M506.82608,154.00456l-8.49127,8.49v-8.518H490.965V175.625h7.36977V166.8436l8.865,8.78137h9.27608l-11.26527-11.26658,9.331-9.32738v12.8471c0,4.26528,2.56505,8.20173,9.02487,8.20173a10.24215,10.24215,0,0,0,7.24876-3.313l3.3136,2.858H535.702V154.00456h-7.37v13.99812a4.12888,4.12888,0,0,1-3.77357,2.35914c-1.81312,0-2.64509-1.07492-2.64509-4.51329v-11.844Z" transform="translate(-4 -4)"/><path id="path3027" class="cls-4" d="M478.1823,158.89081c-1.94662,0-3.6025,2.646-3.6025,5.92133,0,3.27547,1.65588,5.92489,3.6025,5.92489,1.99181,0,3.64486-2.64961,3.64486-5.92489s-1.65305-5.92133-3.64486-5.92133m11.34587,5.92133a11.32621,11.32621,0,1,1-11.34587-11.26583,11.29088,11.29088,0,0,1,11.34587,11.26583" transform="translate(-4 -4)"/><path id="path3023" class="cls-4" d="M459.50461,157.23307a4.61817,4.61817,0,0,0-4.59463-4.63842h-2.27853v9.23587H454.91a4.61029,4.61029,0,0,0,4.59463-4.59745m10.36462,18.41181h-8.36406l-6.64038-9.215h-2.23334v9.1953h-7.37117V148h10.55965c6.0876,0,11.05643,4.13978,11.05643,9.23307a8.97322,8.97322,0,0,1-4.804,7.57851l7.79683,10.8333" transform="translate(-4 -4)"/></g></svg>